<?xml version="1.0" encoding="utf-8"?>
<!-- Generator: Adobe Illustrator 16.0.0, SVG Export Plug-In . SVG Version: 6.00 Build 0)  -->
<!DOCTYPE svg PUBLIC "-//W3C//DTD SVG 1.1//EN" "http://www.w3.org/Graphics/SVG/1.1/DTD/svg11.dtd">
<svg version="1.1" id="图层_1" xmlns="http://www.w3.org/2000/svg" xmlns:xlink="http://www.w3.org/1999/xlink" x="0px" y="0px"
	 width="200.001px" height="202.763px" viewBox="0 0 200.001 202.763" enable-background="new 0 0 200.001 202.763"
	 xml:space="preserve">
<g id="Sun">
	<g>
		<path id="SVGID_33_" fill="#F5B81C" d="M170.713,173.393c-39.053,39.16-102.37,39.16-141.424-0.002
			c-39.052-39.16-39.052-102.652,0-141.815c39.054-39.16,102.368-39.16,141.424,0.005
			C209.762,70.736,209.766,134.231,170.713,173.393z"/>
	</g>
	<g>
		<defs>
			<path id="SVGID_1_" d="M170.713,173.393c-39.053,39.16-102.37,39.16-141.424-0.002c-39.052-39.16-39.052-102.652,0-141.815
				c39.054-39.16,102.368-39.16,141.424,0.005C209.762,70.736,209.766,134.231,170.713,173.393z"/>
		</defs>
		<clipPath id="SVGID_2_">
			<use xlink:href="#SVGID_1_"  overflow="visible"/>
		</clipPath>
		<polygon clip-path="url(#SVGID_2_)" fill="#904920" points="177.512,182.655 198.359,135.446 190.394,124.289 		"/>
	</g>
	<g>
		<defs>
			<path id="SVGID_3_" d="M170.713,173.393c-39.053,39.16-102.37,39.16-141.424-0.002c-39.052-39.16-39.052-102.652,0-141.815
				c39.054-39.16,102.368-39.16,141.424,0.005C209.762,70.736,209.766,134.231,170.713,173.393z"/>
		</defs>
		<clipPath id="SVGID_4_">
			<use xlink:href="#SVGID_3_"  overflow="visible"/>
		</clipPath>
		<polygon clip-path="url(#SVGID_4_)" fill="#FBCE2C" points="135.809,-0.025 115.143,34.132 54.392,64.281 25.204,24.786 		"/>
	</g>
	<g>
		<defs>
			<path id="SVGID_5_" d="M170.713,173.393c-39.053,39.16-102.37,39.16-141.424-0.002c-39.052-39.16-39.052-102.652,0-141.815
				c39.054-39.16,102.368-39.16,141.424,0.005C209.762,70.736,209.766,134.231,170.713,173.393z"/>
		</defs>
		<clipPath id="SVGID_6_">
			<use xlink:href="#SVGID_5_"  overflow="visible"/>
		</clipPath>
		<polygon clip-path="url(#SVGID_6_)" fill="#F3981F" points="145.347,146.808 71.692,207.126 30.082,111.753 		"/>
	</g>
	<g>
		<defs>
			<path id="SVGID_7_" d="M170.713,173.393c-39.053,39.16-102.37,39.16-141.424-0.002c-39.052-39.16-39.052-102.652,0-141.815
				c39.054-39.16,102.368-39.16,141.424,0.005C209.762,70.736,209.766,134.231,170.713,173.393z"/>
		</defs>
		<clipPath id="SVGID_8_">
			<use xlink:href="#SVGID_7_"  overflow="visible"/>
		</clipPath>
		<polygon clip-path="url(#SVGID_8_)" fill="#A34F24" points="163.845,167.898 145.347,146.808 71.692,207.126 		"/>
	</g>
	<g>
		<defs>
			<path id="SVGID_9_" d="M170.713,173.393c-39.053,39.16-102.37,39.16-141.424-0.002c-39.052-39.16-39.052-102.652,0-141.815
				c39.054-39.16,102.368-39.16,141.424,0.005C209.762,70.736,209.766,134.231,170.713,173.393z"/>
		</defs>
		<clipPath id="SVGID_10_">
			<use xlink:href="#SVGID_9_"  overflow="visible"/>
		</clipPath>
		<polygon clip-path="url(#SVGID_10_)" fill="#E27E26" points="145.493,147.816 113.552,28.198 138.684,41.061 158.551,51.058 
			207.271,75.947 		"/>
	</g>
	<g>
		<defs>
			<path id="SVGID_11_" d="M170.713,173.393c-39.053,39.16-102.37,39.16-141.424-0.002c-39.052-39.16-39.052-102.652,0-141.815
				c39.054-39.16,102.368-39.16,141.424,0.005C209.762,70.736,209.766,134.231,170.713,173.393z"/>
		</defs>
		<clipPath id="SVGID_12_">
			<use xlink:href="#SVGID_11_"  overflow="visible"/>
		</clipPath>
		<polygon clip-path="url(#SVGID_12_)" fill="#ECA821" points="113.552,28.198 145.347,146.808 30.082,111.753 		"/>
	</g>
	<g>
		<defs>
			<path id="SVGID_13_" d="M170.713,173.393c-39.053,39.16-102.37,39.16-141.424-0.002c-39.052-39.16-39.052-102.652,0-141.815
				c39.054-39.16,102.368-39.16,141.424,0.005C209.762,70.736,209.766,134.231,170.713,173.393z"/>
		</defs>
		<clipPath id="SVGID_14_">
			<use xlink:href="#SVGID_13_"  overflow="visible"/>
		</clipPath>
		<polygon clip-path="url(#SVGID_14_)" fill="#F09121" points="205.91,75.115 134.258,-0.209 113.552,28.198 137.762,42.919 
			158.551,51.058 		"/>
	</g>
	<g>
		<defs>
			<path id="SVGID_15_" d="M170.713,173.393c-39.053,39.16-102.37,39.16-141.424-0.002c-39.052-39.16-39.052-102.652,0-141.815
				c39.054-39.16,102.368-39.16,141.424,0.005C209.762,70.736,209.766,134.231,170.713,173.393z"/>
		</defs>
		<clipPath id="SVGID_16_">
			<use xlink:href="#SVGID_15_"  overflow="visible"/>
		</clipPath>
		<polygon clip-path="url(#SVGID_16_)" fill="#DC7427" points="206.913,75.115 193.257,131.264 163.845,167.898 145.347,146.808 		
			"/>
	</g>
	<g>
		<defs>
			<path id="SVGID_17_" d="M170.713,173.393c-39.053,39.16-102.37,39.16-141.424-0.002c-39.052-39.16-39.052-102.652,0-141.815
				c39.054-39.16,102.368-39.16,141.424,0.005C209.762,70.736,209.766,134.231,170.713,173.393z"/>
		</defs>
		<clipPath id="SVGID_18_">
			<use xlink:href="#SVGID_17_"  overflow="visible"/>
		</clipPath>
		<polygon clip-path="url(#SVGID_18_)" fill="#A34E24" points="71.692,207.126 20.881,173.917 -10.284,112.713 30.082,111.753 		"/>
	</g>
	<g>
		<defs>
			<path id="SVGID_19_" d="M170.713,173.393c-39.053,39.16-102.37,39.16-141.424-0.002c-39.052-39.16-39.052-102.652,0-141.815
				c39.054-39.16,102.368-39.16,141.424,0.005C209.762,70.736,209.766,134.231,170.713,173.393z"/>
		</defs>
		<clipPath id="SVGID_20_">
			<use xlink:href="#SVGID_19_"  overflow="visible"/>
		</clipPath>
		<polygon clip-path="url(#SVGID_20_)" fill="#FCDB43" points="113.552,28.198 30.369,112.388 22.112,82.263 17.537,66.707 
			25.204,24.786 53.022,25.988 		"/>
	</g>
	<g>
		<defs>
			<path id="SVGID_21_" d="M170.713,173.393c-39.053,39.16-102.37,39.16-141.424-0.002c-39.052-39.16-39.052-102.652,0-141.815
				c39.054-39.16,102.368-39.16,141.424,0.005C209.762,70.736,209.766,134.231,170.713,173.393z"/>
		</defs>
		<clipPath id="SVGID_22_">
			<use xlink:href="#SVGID_21_"  overflow="visible"/>
		</clipPath>
		<polygon clip-path="url(#SVGID_22_)" fill="#FAB719" points="30.369,112.388 -10.284,112.713 25.204,24.786 17.815,66.722 
			22.609,81.966 		"/>
	</g>
	<g>
		<defs>
			<path id="SVGID_23_" d="M170.713,173.393c-39.053,39.16-102.37,39.16-141.424-0.002c-39.052-39.16-39.052-102.652,0-141.815
				c39.054-39.16,102.368-39.16,141.424,0.005C209.762,70.736,209.766,134.231,170.713,173.393z"/>
		</defs>
		<clipPath id="SVGID_24_">
			<use xlink:href="#SVGID_23_"  overflow="visible"/>
		</clipPath>
		<polygon clip-path="url(#SVGID_24_)" fill="#D95B26" points="135.612,-0.269 179.468,31.747 158.551,51.058 		"/>
	</g>
	<g>
		<defs>
			<path id="SVGID_25_" d="M170.713,173.393c-39.053,39.16-102.37,39.16-141.424-0.002c-39.052-39.16-39.052-102.652,0-141.815
				c39.054-39.16,102.368-39.16,141.424,0.005C209.762,70.736,209.766,134.231,170.713,173.393z"/>
		</defs>
		<clipPath id="SVGID_26_">
			<use xlink:href="#SVGID_25_"  overflow="visible"/>
		</clipPath>
		<polygon clip-path="url(#SVGID_26_)" fill="#E37D25" points="179.468,31.747 207.478,76.503 158.551,51.058 		"/>
	</g>
	<g>
		<defs>
			<path id="SVGID_27_" d="M170.713,173.393c-39.053,39.16-102.37,39.16-141.424-0.002c-39.052-39.16-39.052-102.652,0-141.815
				c39.054-39.16,102.368-39.16,141.424,0.005C209.762,70.736,209.766,134.231,170.713,173.393z"/>
		</defs>
		<clipPath id="SVGID_28_">
			<use xlink:href="#SVGID_27_"  overflow="visible"/>
		</clipPath>
		<polygon clip-path="url(#SVGID_28_)" fill="#EA7D24" points="20.881,173.917 30.6,112.352 -10.368,112.705 		"/>
	</g>
	<g>
		<defs>
			<path id="SVGID_29_" d="M170.713,173.393c-39.053,39.16-102.37,39.16-141.424-0.002c-39.052-39.16-39.052-102.652,0-141.815
				c39.054-39.16,102.368-39.16,141.424,0.005C209.762,70.736,209.766,134.231,170.713,173.393z"/>
		</defs>
		<clipPath id="SVGID_30_">
			<use xlink:href="#SVGID_29_"  overflow="visible"/>
		</clipPath>
		<polygon clip-path="url(#SVGID_30_)" fill="#FFC541" points="113.552,28.198 84.661,74.415 77.893,53.423 		"/>
	</g>
	<g>
		<defs>
			<path id="SVGID_31_" d="M170.713,173.393c-39.053,39.16-102.37,39.16-141.424-0.002c-39.052-39.16-39.052-102.652,0-141.815
				c39.054-39.16,102.368-39.16,141.424,0.005C209.762,70.736,209.766,134.231,170.713,173.393z"/>
		</defs>
		<clipPath id="SVGID_32_">
			<use xlink:href="#SVGID_31_"  overflow="visible"/>
		</clipPath>
		<polygon clip-path="url(#SVGID_32_)" fill="#ECA92A" points="186.72,98.583 159.018,91.727 147.936,92.576 145.347,146.808 		"/>
	</g>
	<g>
		<defs>
			<path id="SVGID_34_" d="M170.713,173.393c-39.053,39.16-102.37,39.16-141.424-0.002c-39.052-39.16-39.052-102.652,0-141.815
				c39.054-39.16,102.368-39.16,141.424,0.005C209.762,70.736,209.766,134.231,170.713,173.393z"/>
		</defs>
		<clipPath id="SVGID_35_">
			<use xlink:href="#SVGID_34_"  overflow="visible"/>
		</clipPath>
		<polygon clip-path="url(#SVGID_35_)" fill="#E06926" points="207.461,75.46 186.72,98.583 159.018,91.727 		"/>
	</g>
	<g>
		<defs>
			<path id="SVGID_36_" d="M170.713,173.393c-39.053,39.16-102.37,39.16-141.424-0.002c-39.052-39.16-39.052-102.652,0-141.815
				c39.054-39.16,102.368-39.16,141.424,0.005C209.762,70.736,209.766,134.231,170.713,173.393z"/>
		</defs>
		<clipPath id="SVGID_37_">
			<use xlink:href="#SVGID_36_"  overflow="visible"/>
		</clipPath>
		<polygon clip-path="url(#SVGID_37_)" fill="#D96D27" points="186.72,98.583 181.43,122.177 145.347,146.808 		"/>
	</g>
	<g>
		<defs>
			<path id="SVGID_38_" d="M170.713,173.393c-39.053,39.16-102.37,39.16-141.424-0.002c-39.052-39.16-39.052-102.652,0-141.815
				c39.054-39.16,102.368-39.16,141.424,0.005C209.762,70.736,209.766,134.231,170.713,173.393z"/>
		</defs>
		<clipPath id="SVGID_39_">
			<use xlink:href="#SVGID_38_"  overflow="visible"/>
		</clipPath>
		<polygon clip-path="url(#SVGID_39_)" fill="#974021" points="207.78,74.958 198.359,135.446 181.43,122.177 		"/>
	</g>
	<g>
		<defs>
			<path id="SVGID_40_" d="M170.713,173.393c-39.053,39.16-102.37,39.16-141.424-0.002c-39.052-39.16-39.052-102.652,0-141.815
				c39.054-39.16,102.368-39.16,141.424,0.005C209.762,70.736,209.766,134.231,170.713,173.393z"/>
		</defs>
		<clipPath id="SVGID_41_">
			<use xlink:href="#SVGID_40_"  overflow="visible"/>
		</clipPath>
		<polygon clip-path="url(#SVGID_41_)" fill="#A34F24" points="163.845,167.898 177.402,183.083 193.257,131.264 		"/>
	</g>
	<g>
		<defs>
			<path id="SVGID_42_" d="M170.713,173.393c-39.053,39.16-102.37,39.16-141.424-0.002c-39.052-39.16-39.052-102.652,0-141.815
				c39.054-39.16,102.368-39.16,141.424,0.005C209.762,70.736,209.766,134.231,170.713,173.393z"/>
		</defs>
		<clipPath id="SVGID_43_">
			<use xlink:href="#SVGID_42_"  overflow="visible"/>
		</clipPath>
		<polygon clip-path="url(#SVGID_43_)" fill="#9B4722" points="177.512,182.655 126.064,204.625 131.08,186.863 		"/>
	</g>
	<g>
		<defs>
			<path id="SVGID_44_" d="M170.713,173.393c-39.053,39.16-102.37,39.16-141.424-0.002c-39.052-39.16-39.052-102.652,0-141.815
				c39.054-39.16,102.368-39.16,141.424,0.005C209.762,70.736,209.766,134.231,170.713,173.393z"/>
		</defs>
		<clipPath id="SVGID_45_">
			<use xlink:href="#SVGID_44_"  overflow="visible"/>
		</clipPath>
		<polygon clip-path="url(#SVGID_45_)" fill="#B45026" points="66.918,207.498 126.518,204.626 131.08,186.863 		"/>
	</g>
	<g>
		<defs>
			<path id="SVGID_46_" d="M170.713,173.393c-39.053,39.16-102.37,39.16-141.424-0.002c-39.052-39.16-39.052-102.652,0-141.815
				c39.054-39.16,102.368-39.16,141.424,0.005C209.762,70.736,209.766,134.231,170.713,173.393z"/>
		</defs>
		<clipPath id="SVGID_47_">
			<use xlink:href="#SVGID_46_"  overflow="visible"/>
		</clipPath>
		<polygon clip-path="url(#SVGID_47_)" fill="#FED730" points="25.204,24.786 53.022,25.988 40.979,31.432 24.268,36.083 		"/>
	</g>
	<g>
		<defs>
			<path id="SVGID_48_" d="M170.713,173.393c-39.053,39.16-102.37,39.16-141.424-0.002c-39.052-39.16-39.052-102.652,0-141.815
				c39.054-39.16,102.368-39.16,141.424,0.005C209.762,70.736,209.766,134.231,170.713,173.393z"/>
		</defs>
		<clipPath id="SVGID_49_">
			<use xlink:href="#SVGID_48_"  overflow="visible"/>
		</clipPath>
		<polygon clip-path="url(#SVGID_49_)" fill="#FDB61A" points="25.204,24.786 71.071,1.277 87.608,15.072 		"/>
	</g>
	<g>
		<defs>
			<path id="SVGID_50_" d="M170.713,173.393c-39.053,39.16-102.37,39.16-141.424-0.002c-39.052-39.16-39.052-102.652,0-141.815
				c39.054-39.16,102.368-39.16,141.424,0.005C209.762,70.736,209.766,134.231,170.713,173.393z"/>
		</defs>
		<clipPath id="SVGID_51_">
			<use xlink:href="#SVGID_50_"  overflow="visible"/>
		</clipPath>
		<polygon clip-path="url(#SVGID_51_)" fill="#FCD031" points="87.608,15.072 53.022,25.988 25.204,24.786 		"/>
	</g>
	<g>
		<defs>
			<path id="SVGID_52_" d="M170.713,173.393c-39.053,39.16-102.37,39.16-141.424-0.002c-39.052-39.16-39.052-102.652,0-141.815
				c39.054-39.16,102.368-39.16,141.424,0.005C209.762,70.736,209.766,134.231,170.713,173.393z"/>
		</defs>
		<clipPath id="SVGID_53_">
			<use xlink:href="#SVGID_52_"  overflow="visible"/>
		</clipPath>
		<polygon clip-path="url(#SVGID_53_)" fill="#F9BF50" points="25.204,24.786 14.104,34.328 18.686,40.577 		"/>
	</g>
	<g>
		<defs>
			<path id="SVGID_54_" d="M170.713,173.393c-39.053,39.16-102.37,39.16-141.424-0.002c-39.052-39.16-39.052-102.652,0-141.815
				c39.054-39.16,102.368-39.16,141.424,0.005C209.762,70.736,209.766,134.231,170.713,173.393z"/>
		</defs>
		<clipPath id="SVGID_55_">
			<use xlink:href="#SVGID_54_"  overflow="visible"/>
		</clipPath>
		<polygon clip-path="url(#SVGID_55_)" fill="#F7C22E" points="136.928,0 87.608,15.072 71.071,1.277 		"/>
	</g>
	<g>
		<defs>
			<path id="SVGID_56_" d="M170.713,173.393c-39.053,39.16-102.37,39.16-141.424-0.002c-39.052-39.16-39.052-102.652,0-141.815
				c39.054-39.16,102.368-39.16,141.424,0.005C209.762,70.736,209.766,134.231,170.713,173.393z"/>
		</defs>
		<clipPath id="SVGID_57_">
			<use xlink:href="#SVGID_56_"  overflow="visible"/>
		</clipPath>
		<polygon clip-path="url(#SVGID_57_)" fill="#EFC276" points="24.268,36.083 5.087,57.278 14.104,34.328 		"/>
	</g>
	<g>
		<defs>
			<path id="SVGID_58_" d="M170.713,173.393c-39.053,39.16-102.37,39.16-141.424-0.002c-39.052-39.16-39.052-102.652,0-141.815
				c39.054-39.16,102.368-39.16,141.424,0.005C209.762,70.736,209.766,134.231,170.713,173.393z"/>
		</defs>
		<clipPath id="SVGID_59_">
			<use xlink:href="#SVGID_58_"  overflow="visible"/>
		</clipPath>
		<polygon clip-path="url(#SVGID_59_)" fill="#FFF3B3" points="-10.368,112.705 5.087,57.278 9.438,63.752 		"/>
	</g>
	<g>
		<defs>
			<path id="SVGID_60_" d="M170.713,173.393c-39.053,39.16-102.37,39.16-141.424-0.002c-39.052-39.16-39.052-102.652,0-141.815
				c39.054-39.16,102.368-39.16,141.424,0.005C209.762,70.736,209.766,134.231,170.713,173.393z"/>
		</defs>
		<clipPath id="SVGID_61_">
			<use xlink:href="#SVGID_60_"  overflow="visible"/>
		</clipPath>
		<polygon clip-path="url(#SVGID_61_)" fill="#FDDA32" points="24.268,36.083 27.736,51.983 5.087,57.278 		"/>
	</g>
	<g>
		<defs>
			<path id="SVGID_62_" d="M170.713,173.393c-39.053,39.16-102.37,39.16-141.424-0.002c-39.052-39.16-39.052-102.652,0-141.815
				c39.054-39.16,102.368-39.16,141.424,0.005C209.762,70.736,209.766,134.231,170.713,173.393z"/>
		</defs>
		<clipPath id="SVGID_63_">
			<use xlink:href="#SVGID_62_"  overflow="visible"/>
		</clipPath>
		<polygon clip-path="url(#SVGID_63_)" fill="#F5A31D" points="30.369,112.388 61.328,121.352 44.51,105.328 		"/>
	</g>
	<g>
		<defs>
			<path id="SVGID_64_" d="M170.713,173.393c-39.053,39.16-102.37,39.16-141.424-0.002c-39.052-39.16-39.052-102.652,0-141.815
				c39.054-39.16,102.368-39.16,141.424,0.005C209.762,70.736,209.766,134.231,170.713,173.393z"/>
		</defs>
		<clipPath id="SVGID_65_">
			<use xlink:href="#SVGID_64_"  overflow="visible"/>
		</clipPath>
		<polygon clip-path="url(#SVGID_65_)" fill="#EE8E22" points="61.328,121.352 52.994,164.362 30.369,112.388 		"/>
	</g>
	<g>
		<defs>
			<path id="SVGID_66_" d="M170.713,173.393c-39.053,39.16-102.37,39.16-141.424-0.002c-39.052-39.16-39.052-102.652,0-141.815
				c39.054-39.16,102.368-39.16,141.424,0.005C209.762,70.736,209.766,134.231,170.713,173.393z"/>
		</defs>
		<clipPath id="SVGID_67_">
			<use xlink:href="#SVGID_66_"  overflow="visible"/>
		</clipPath>
		<polygon clip-path="url(#SVGID_67_)" fill="#EE9C21" points="71.692,207.126 47.842,164.221 30.369,112.388 		"/>
	</g>
	<g>
		<defs>
			<path id="SVGID_68_" d="M170.713,173.393c-39.053,39.16-102.37,39.16-141.424-0.002c-39.052-39.16-39.052-102.652,0-141.815
				c39.054-39.16,102.368-39.16,141.424,0.005C209.762,70.736,209.766,134.231,170.713,173.393z"/>
		</defs>
		<clipPath id="SVGID_69_">
			<use xlink:href="#SVGID_68_"  overflow="visible"/>
		</clipPath>
		<polygon clip-path="url(#SVGID_69_)" fill="#E38B25" points="163.845,167.898 121.209,166.478 145.347,146.808 		"/>
	</g>
	<g>
		<defs>
			<path id="SVGID_70_" d="M170.713,173.393c-39.053,39.16-102.37,39.16-141.424-0.002c-39.052-39.16-39.052-102.652,0-141.815
				c39.054-39.16,102.368-39.16,141.424,0.005C209.762,70.736,209.766,134.231,170.713,173.393z"/>
		</defs>
		<clipPath id="SVGID_71_">
			<use xlink:href="#SVGID_70_"  overflow="visible"/>
		</clipPath>
		<polygon clip-path="url(#SVGID_71_)" fill="#E07926" points="145.347,146.808 131.08,186.863 71.24,207.297 		"/>
	</g>
	<g>
		<defs>
			<path id="SVGID_72_" d="M170.713,173.393c-39.053,39.16-102.37,39.16-141.424-0.002c-39.052-39.16-39.052-102.652,0-141.815
				c39.054-39.16,102.368-39.16,141.424,0.005C209.762,70.736,209.766,134.231,170.713,173.393z"/>
		</defs>
		<clipPath id="SVGID_73_">
			<use xlink:href="#SVGID_72_"  overflow="visible"/>
		</clipPath>
		<polygon clip-path="url(#SVGID_73_)" fill="#F9C434" points="20.881,173.917 47.842,164.221 30.369,112.388 		"/>
	</g>
	<g>
		<defs>
			<path id="SVGID_74_" d="M170.713,173.393c-39.053,39.16-102.37,39.16-141.424-0.002c-39.052-39.16-39.052-102.652,0-141.815
				c39.054-39.16,102.368-39.16,141.424,0.005C209.762,70.736,209.766,134.231,170.713,173.393z"/>
		</defs>
		<clipPath id="SVGID_75_">
			<use xlink:href="#SVGID_74_"  overflow="visible"/>
		</clipPath>
		<polygon clip-path="url(#SVGID_75_)" fill="#E98B24" points="101.605,133.505 71.24,207.297 145.347,146.808 		"/>
	</g>
	<g>
		<defs>
			<path id="SVGID_76_" d="M170.713,173.393c-39.053,39.16-102.37,39.16-141.424-0.002c-39.052-39.16-39.052-102.652,0-141.815
				c39.054-39.16,102.368-39.16,141.424,0.005C209.762,70.736,209.766,134.231,170.713,173.393z"/>
		</defs>
		<clipPath id="SVGID_77_">
			<use xlink:href="#SVGID_76_"  overflow="visible"/>
		</clipPath>
		<polygon clip-path="url(#SVGID_77_)" fill="#FEECE0" points="17.815,66.722 3.093,63.299 5.311,56.912 16.914,51.574 23.71,56.23 
					"/>
	</g>
	<g>
		<defs>
			<path id="SVGID_78_" d="M170.713,173.393c-39.053,39.16-102.37,39.16-141.424-0.002c-39.052-39.16-39.052-102.652,0-141.815
				c39.054-39.16,102.368-39.16,141.424,0.005C209.762,70.736,209.766,134.231,170.713,173.393z"/>
		</defs>
		<clipPath id="SVGID_79_">
			<use xlink:href="#SVGID_78_"  overflow="visible"/>
		</clipPath>
		<polygon clip-path="url(#SVGID_79_)" fill="#FDD323" points="23.71,56.23 16.914,51.574 27.736,51.983 40.549,50.176 		"/>
	</g>
	<g>
		<defs>
			<path id="SVGID_80_" d="M170.713,173.393c-39.053,39.16-102.37,39.16-141.424-0.002c-39.052-39.16-39.052-102.652,0-141.815
				c39.054-39.16,102.368-39.16,141.424,0.005C209.762,70.736,209.766,134.231,170.713,173.393z"/>
		</defs>
		<clipPath id="SVGID_81_">
			<use xlink:href="#SVGID_80_"  overflow="visible"/>
		</clipPath>
		<polygon clip-path="url(#SVGID_81_)" fill="#FDD97C" points="62.254,45.808 52.433,48.453 57.311,60.123 65.913,46.951 		"/>
	</g>
	<g>
		<defs>
			<path id="SVGID_82_" d="M170.713,173.393c-39.053,39.16-102.37,39.16-141.424-0.002c-39.052-39.16-39.052-102.652,0-141.815
				c39.054-39.16,102.368-39.16,141.424,0.005C209.762,70.736,209.766,134.231,170.713,173.393z"/>
		</defs>
		<clipPath id="SVGID_83_">
			<use xlink:href="#SVGID_82_"  overflow="visible"/>
		</clipPath>
		<polygon clip-path="url(#SVGID_83_)" fill="#904920" points="54.392,64.281 52.033,80.046 69.883,88.712 		"/>
	</g>
	<g>
		<defs>
			<path id="SVGID_84_" d="M170.713,173.393c-39.053,39.16-102.37,39.16-141.424-0.002c-39.052-39.16-39.052-102.652,0-141.815
				c39.054-39.16,102.368-39.16,141.424,0.005C209.762,70.736,209.766,134.231,170.713,173.393z"/>
		</defs>
		<clipPath id="SVGID_85_">
			<use xlink:href="#SVGID_84_"  overflow="visible"/>
		</clipPath>
		<polygon clip-path="url(#SVGID_85_)" fill="#FAD03A" points="52.033,80.046 44.199,87.788 69.883,88.712 		"/>
	</g>
	<g>
		<defs>
			<path id="SVGID_86_" d="M170.713,173.393c-39.053,39.16-102.37,39.16-141.424-0.002c-39.052-39.16-39.052-102.652,0-141.815
				c39.054-39.16,102.368-39.16,141.424,0.005C209.762,70.736,209.766,134.231,170.713,173.393z"/>
		</defs>
		<clipPath id="SVGID_87_">
			<use xlink:href="#SVGID_86_"  overflow="visible"/>
		</clipPath>
		<polygon clip-path="url(#SVGID_87_)" fill="#FCD71F" points="77.893,53.423 84.661,74.415 69.883,88.712 54.392,64.281 
			57.311,60.123 65.913,46.951 		"/>
	</g>
	<g>
		<defs>
			<path id="SVGID_88_" d="M170.713,173.393c-39.053,39.16-102.37,39.16-141.424-0.002c-39.052-39.16-39.052-102.652,0-141.815
				c39.054-39.16,102.368-39.16,141.424,0.005C209.762,70.736,209.766,134.231,170.713,173.393z"/>
		</defs>
		<clipPath id="SVGID_89_">
			<use xlink:href="#SVGID_88_"  overflow="visible"/>
		</clipPath>
		<polygon clip-path="url(#SVGID_89_)" fill="#FEE233" points="40.549,50.176 17.815,66.722 23.71,56.23 		"/>
	</g>
	<g>
		<defs>
			<path id="SVGID_90_" d="M170.713,173.393c-39.053,39.16-102.37,39.16-141.424-0.002c-39.052-39.16-39.052-102.652,0-141.815
				c39.054-39.16,102.368-39.16,141.424,0.005C209.762,70.736,209.766,134.231,170.713,173.393z"/>
		</defs>
		<clipPath id="SVGID_91_">
			<use xlink:href="#SVGID_90_"  overflow="visible"/>
		</clipPath>
		<polygon clip-path="url(#SVGID_91_)" fill="#F4B31B" points="60.779,121.196 44.51,105.328 44.199,87.788 69.883,88.712 
			77.278,90.184 69.483,104.055 		"/>
	</g>
	<g>
		<defs>
			<path id="SVGID_92_" d="M170.713,173.393c-39.053,39.16-102.37,39.16-141.424-0.002c-39.052-39.16-39.052-102.652,0-141.815
				c39.054-39.16,102.368-39.16,141.424,0.005C209.762,70.736,209.766,134.231,170.713,173.393z"/>
		</defs>
		<clipPath id="SVGID_93_">
			<use xlink:href="#SVGID_92_"  overflow="visible"/>
		</clipPath>
		<polygon clip-path="url(#SVGID_93_)" fill="#F7C529" points="77.278,90.184 84.661,74.415 99.285,82.191 		"/>
	</g>
	<g>
		<defs>
			<path id="SVGID_94_" d="M170.713,173.393c-39.053,39.16-102.37,39.16-141.424-0.002c-39.052-39.16-39.052-102.652,0-141.815
				c39.054-39.16,102.368-39.16,141.424,0.005C209.762,70.736,209.766,134.231,170.713,173.393z"/>
		</defs>
		<clipPath id="SVGID_95_">
			<use xlink:href="#SVGID_94_"  overflow="visible"/>
		</clipPath>
		<polygon clip-path="url(#SVGID_95_)" fill="#EA9E22" points="145.347,146.808 117.466,100.723 132.549,78.031 149.148,86.804 		
			"/>
	</g>
	<g>
		<defs>
			<path id="SVGID_96_" d="M170.713,173.393c-39.053,39.16-102.37,39.16-141.424-0.002c-39.052-39.16-39.052-102.652,0-141.815
				c39.054-39.16,102.368-39.16,141.424,0.005C209.762,70.736,209.766,134.231,170.713,173.393z"/>
		</defs>
		<clipPath id="SVGID_97_">
			<use xlink:href="#SVGID_96_"  overflow="visible"/>
		</clipPath>
		<polygon clip-path="url(#SVGID_97_)" fill="#FACA27" points="99.285,82.191 69.483,104.055 77.278,90.184 		"/>
	</g>
	<g>
		<defs>
			<path id="SVGID_98_" d="M170.713,173.393c-39.053,39.16-102.37,39.16-141.424-0.002c-39.052-39.16-39.052-102.652,0-141.815
				c39.054-39.16,102.368-39.16,141.424,0.005C209.762,70.736,209.766,134.231,170.713,173.393z"/>
		</defs>
		<clipPath id="SVGID_99_">
			<use xlink:href="#SVGID_98_"  overflow="visible"/>
		</clipPath>
		<polygon clip-path="url(#SVGID_99_)" fill="#FCCF1E" points="65.913,46.951 113.552,28.198 77.893,53.423 		"/>
	</g>
	<g>
		<defs>
			<path id="SVGID_100_" d="M170.713,173.393c-39.053,39.16-102.37,39.16-141.424-0.002c-39.052-39.16-39.052-102.652,0-141.815
				c39.054-39.16,102.368-39.16,141.424,0.005C209.762,70.736,209.766,134.231,170.713,173.393z"/>
		</defs>
		<clipPath id="SVGID_101_">
			<use xlink:href="#SVGID_100_"  overflow="visible"/>
		</clipPath>
		<polygon clip-path="url(#SVGID_101_)" fill="#FBCC1E" points="62.254,45.808 53.022,25.988 113.552,28.198 65.913,46.951 		"/>
	</g>
	<g>
		<defs>
			<path id="SVGID_102_" d="M170.713,173.393c-39.053,39.16-102.37,39.16-141.424-0.002c-39.052-39.16-39.052-102.652,0-141.815
				c39.054-39.16,102.368-39.16,141.424,0.005C209.762,70.736,209.766,134.231,170.713,173.393z"/>
		</defs>
		<clipPath id="SVGID_103_">
			<use xlink:href="#SVGID_102_"  overflow="visible"/>
		</clipPath>
		<polygon clip-path="url(#SVGID_103_)" fill="#FCCB28" points="40.549,50.176 40.979,31.432 24.268,36.083 27.736,51.983 		"/>
	</g>
	<g>
		<defs>
			<path id="SVGID_104_" d="M170.713,173.393c-39.053,39.16-102.37,39.16-141.424-0.002c-39.052-39.16-39.052-102.652,0-141.815
				c39.054-39.16,102.368-39.16,141.424,0.005C209.762,70.736,209.766,134.231,170.713,173.393z"/>
		</defs>
		<clipPath id="SVGID_105_">
			<use xlink:href="#SVGID_104_"  overflow="visible"/>
		</clipPath>
		<polygon clip-path="url(#SVGID_105_)" fill="#EFA120" points="121.48,94.684 159.018,91.727 137.762,42.919 		"/>
	</g>
	<g>
		<defs>
			<path id="SVGID_106_" d="M170.713,173.393c-39.053,39.16-102.37,39.16-141.424-0.002c-39.052-39.16-39.052-102.652,0-141.815
				c39.054-39.16,102.368-39.16,141.424,0.005C209.762,70.736,209.766,134.231,170.713,173.393z"/>
		</defs>
		<clipPath id="SVGID_107_">
			<use xlink:href="#SVGID_106_"  overflow="visible"/>
		</clipPath>
		<polygon clip-path="url(#SVGID_107_)" fill="#F5B81C" points="137.762,42.919 84.661,74.415 99.285,82.191 121.48,94.684 		"/>
	</g>
	<g>
		<defs>
			<path id="SVGID_108_" d="M170.713,173.393c-39.053,39.16-102.37,39.16-141.424-0.002c-39.052-39.16-39.052-102.652,0-141.815
				c39.054-39.16,102.368-39.16,141.424,0.005C209.762,70.736,209.766,134.231,170.713,173.393z"/>
		</defs>
		<clipPath id="SVGID_109_">
			<use xlink:href="#SVGID_108_"  overflow="visible"/>
		</clipPath>
		<polygon clip-path="url(#SVGID_109_)" fill="#F3BA27" points="114.896,79.999 121.48,94.684 117.466,100.723 99.285,82.191 		"/>
	</g>
	<g>
		<defs>
			<path id="SVGID_110_" d="M170.713,173.393c-39.053,39.16-102.37,39.16-141.424-0.002c-39.052-39.16-39.052-102.652,0-141.815
				c39.054-39.16,102.368-39.16,141.424,0.005C209.762,70.736,209.766,134.231,170.713,173.393z"/>
		</defs>
		<clipPath id="SVGID_111_">
			<use xlink:href="#SVGID_110_"  overflow="visible"/>
		</clipPath>
		<polygon clip-path="url(#SVGID_111_)" fill="#F0B11D" points="121.48,94.684 114.896,79.999 137.762,42.919 		"/>
	</g>
	<g>
		<defs>
			<path id="SVGID_112_" d="M170.713,173.393c-39.053,39.16-102.37,39.16-141.424-0.002c-39.052-39.16-39.052-102.652,0-141.815
				c39.054-39.16,102.368-39.16,141.424,0.005C209.762,70.736,209.766,134.231,170.713,173.393z"/>
		</defs>
		<clipPath id="SVGID_113_">
			<use xlink:href="#SVGID_112_"  overflow="visible"/>
		</clipPath>
		<polygon clip-path="url(#SVGID_113_)" fill="#9E4422" points="159.018,91.727 158.551,51.058 181.214,62.57 		"/>
	</g>
	<g>
		<defs>
			<path id="SVGID_114_" d="M170.713,173.393c-39.053,39.16-102.37,39.16-141.424-0.002c-39.052-39.16-39.052-102.652,0-141.815
				c39.054-39.16,102.368-39.16,141.424,0.005C209.762,70.736,209.766,134.231,170.713,173.393z"/>
		</defs>
		<clipPath id="SVGID_115_">
			<use xlink:href="#SVGID_114_"  overflow="visible"/>
		</clipPath>
		<polygon clip-path="url(#SVGID_115_)" fill="#EFA520" points="117.466,100.723 101.605,133.505 99.285,82.191 		"/>
	</g>
	<g>
		<defs>
			<path id="SVGID_116_" d="M170.713,173.393c-39.053,39.16-102.37,39.16-141.424-0.002c-39.052-39.16-39.052-102.652,0-141.815
				c39.054-39.16,102.368-39.16,141.424,0.005C209.762,70.736,209.766,134.231,170.713,173.393z"/>
		</defs>
		<clipPath id="SVGID_117_">
			<use xlink:href="#SVGID_116_"  overflow="visible"/>
		</clipPath>
		<polygon clip-path="url(#SVGID_117_)" fill="#F5B71C" points="69.483,104.055 60.779,121.196 101.605,133.505 		"/>
	</g>
	<g>
		<defs>
			<path id="SVGID_118_" d="M170.713,173.393c-39.053,39.16-102.37,39.16-141.424-0.002c-39.052-39.16-39.052-102.652,0-141.815
				c39.054-39.16,102.368-39.16,141.424,0.005C209.762,70.736,209.766,134.231,170.713,173.393z"/>
		</defs>
		<clipPath id="SVGID_119_">
			<use xlink:href="#SVGID_118_"  overflow="visible"/>
		</clipPath>
		<polygon clip-path="url(#SVGID_119_)" fill="#FCD679" points="44.199,87.788 30.369,112.388 44.51,105.328 		"/>
	</g>
	<g>
		<defs>
			<path id="SVGID_120_" d="M170.713,173.393c-39.053,39.16-102.37,39.16-141.424-0.002c-39.052-39.16-39.052-102.652,0-141.815
				c39.054-39.16,102.368-39.16,141.424,0.005C209.762,70.736,209.766,134.231,170.713,173.393z"/>
		</defs>
		<clipPath id="SVGID_121_">
			<use xlink:href="#SVGID_120_"  overflow="visible"/>
		</clipPath>
		<polygon clip-path="url(#SVGID_121_)" fill="#DB9529" points="52.033,80.046 17.815,66.722 44.199,87.788 		"/>
	</g>
	<g>
		<defs>
			<path id="SVGID_122_" d="M170.713,173.393c-39.053,39.16-102.37,39.16-141.424-0.002c-39.052-39.16-39.052-102.652,0-141.815
				c39.054-39.16,102.368-39.16,141.424,0.005C209.762,70.736,209.766,134.231,170.713,173.393z"/>
		</defs>
		<clipPath id="SVGID_123_">
			<use xlink:href="#SVGID_122_"  overflow="visible"/>
		</clipPath>
		<polygon clip-path="url(#SVGID_123_)" fill="#FCD22A" points="17.815,66.722 54.392,64.281 57.311,60.123 52.433,48.453 
			40.549,50.176 		"/>
	</g>
	<g>
		<defs>
			<path id="SVGID_124_" d="M170.713,173.393c-39.053,39.16-102.37,39.16-141.424-0.002c-39.052-39.16-39.052-102.652,0-141.815
				c39.054-39.16,102.368-39.16,141.424,0.005C209.762,70.736,209.766,134.231,170.713,173.393z"/>
		</defs>
		<clipPath id="SVGID_125_">
			<use xlink:href="#SVGID_124_"  overflow="visible"/>
		</clipPath>
		<polygon clip-path="url(#SVGID_125_)" fill="#E58124" points="52.994,164.362 101.605,133.505 71.33,209.492 		"/>
	</g>
</g>
<g>
	<path opacity="0.7" fill="#FFFF33" d="M76.47,126.425c3.914,6.779,1.592,15.447-5.188,19.361l0,0
		c-6.779,3.914-15.447,1.591-19.361-5.188L16.094,78.544c-3.913-6.779-1.591-15.447,5.188-19.361l0,0
		c6.779-3.914,15.447-1.591,19.36,5.188L76.47,126.425z"/>
	<path opacity="0.7" fill="#5EEA89" d="M147.97,126.425c3.914,6.779,1.592,15.447-5.188,19.361l0,0
		c-6.779,3.914-15.447,1.591-19.361-5.188L87.594,78.544c-3.913-6.779-1.591-15.447,5.188-19.361l0,0
		c6.779-3.914,15.447-1.591,19.36,5.188L147.97,126.425z"/>
	<path opacity="0.7" fill="#339966" d="M123.531,126.425c-3.914,6.779-1.592,15.447,5.188,19.361l0,0
		c6.779,3.914,15.447,1.591,19.361-5.188l35.828-62.054c3.912-6.779,1.59-15.447-5.189-19.361l0,0
		c-6.779-3.914-15.447-1.591-19.359,5.188L123.531,126.425z"/>
	<path opacity="0.7" fill="#99FF66" d="M51.641,126.425c-3.914,6.779-1.592,15.447,5.188,19.361l0,0
		c6.779,3.914,15.447,1.591,19.361-5.188l35.828-62.054c3.912-6.779,1.59-15.447-5.189-19.361l0,0
		c-6.779-3.914-15.447-1.591-19.359,5.188L51.641,126.425z"/>
</g>
</svg>
